<svg xmlns="http://www.w3.org/2000/svg" version="1.1" xmlns:xlink="http://www.w3.org/1999/xlink" width="2000" height="1500" viewBox="0 0 2000 1500"><rect width="2000" height="1500" x="0" y="0" id="background" stroke="transparent" fill="#ffffff"></rect><svg xml:space="preserve" width="1500" height="1125" data-version="2" data-id="lg_B7J4Xa9hzD5Uc14EIt" viewBox="0 0 434 499" x="250" y="187.5"><rect width="100%" height="100%" fill="transparent"></rect><path fill="#363636" d="m47.2 491.305 11.1-44.38h10.65q3.15 0 5.64 1.33 2.49 1.33 3.95 3.7 1.45 2.37 1.45 5.47 0 3.01-1.38 5.67-1.38 2.67-3.7 4.56-2.31 1.9-5.17 2.74l9.26 20.91h-6.06l-8.97-20.42h-6.02l-5.13 20.42Zm11.93-25.15h6.66q2.52 0 4.54-1.11t3.18-2.93q1.16-1.83 1.16-4 0-2.76-1.9-4.46-1.9-1.7-5.2-1.7h-4.89Z"></path><rect width="32.79" height="44.38" x="-16.39" y="-22.19" fill="none" rx="0" ry="0" transform="translate(64.1 469.62)"></rect><path fill="#363636" d="m80.19 491.305 30.03-45.86h.09l7.55 45.86h-5.48l-2.02-13.17H94.83l-8.48 13.17Zm17.65-17.85h11.78l-1.33-8.78q-.19-1.68-.39-3.3-.2-1.63-.25-3.9-1.13 2.27-2.07 3.87-.94 1.61-2.07 3.33Z"></path><rect width="37.67" height="45.86" x="-18.84" y="-22.93" fill="none" rx="0" ry="0" transform="translate(99.53 468.88)"></rect><path fill="#363636" d="m124.07 451.955 1.23-5.03h29.29l-1.23 5.03h-11.84l-9.86 39.35h-5.62l9.86-39.35Z"></path><rect width="30.52" height="44.38" x="-15.26" y="-22.19" fill="none" rx="0" ry="0" transform="translate(139.83 469.62)"></rect><path fill="#363636" d="m152.08 491.305 11.09-44.38h21.89l-1.23 5.03h-16.27l-2.37 9.47h12.82l-1.23 5.03h-12.82l-5.03 19.82h16.27l-1.23 5.03Z"></path><rect width="32.98" height="44.38" x="-16.49" y="-22.19" fill="none" rx="0" ry="0" transform="translate(169.07 469.62)"></rect><path fill="#363636" d="m219.18 492.785-22.53-34.22-8.19 32.74h-5.32l11.44-45.86 22.53 34.22 8.18-32.74h5.33Z"></path><rect width="47.48" height="47.34" x="-23.74" y="-23.67" fill="none" rx="0" ry="0" transform="translate(207.38 469.62)"></rect><path fill="#363636" d="m231.95 491.305 11.09-44.38h21.9l-1.24 5.03h-16.27l-2.36 9.47h12.82l-1.24 5.03h-12.82l-5.03 19.82h16.27l-1.23 5.03Z"></path><rect width="32.99" height="44.38" x="-16.5" y="-22.19" fill="none" rx="0" ry="0" transform="translate(248.94 469.62)"></rect><path fill="#363636" d="M274.5 491.595q-3.89 0-7.32-1.9-3.43-1.89-5.15-5.05l3.25-6.51q.54 2.42 1.97 4.34t3.45 3.03q2.03 1.11 4.29 1.11 2.37 0 4.39-1.16 2.02-1.16 3.26-3.05 1.23-1.9 1.23-4.07 0-1.97-1.09-3.6-1.08-1.63-3.1-3.16l-4.34-3.4q-2.61-2.02-4.04-4.12-1.43-2.09-1.43-4.9 0-3.35 1.8-6.21t4.8-4.59q3.01-1.72 6.61-1.72 3.25 0 6.26 1.38t4.98 3.79l-3.25 6.46q-1.04-3.01-3.45-4.88-2.42-1.87-5.18-1.87-2.71 0-4.76 1.97-2.04 1.97-2.04 4.78 0 1.53.86 2.89.86 1.35 2.49 2.63l4.44 3.41q3.05 2.31 4.61 4.73 1.55 2.41 1.55 5.47 0 3.75-2.05 7-2.04 3.26-5.47 5.23-3.43 1.97-7.57 1.97"></path><rect width="32.29" height="44.96" x="-16.14" y="-22.48" fill="none" rx="0" ry="0" transform="translate(278.68 469.62)"></rect><path fill="#363636" d="m300.09 451.955 1.23-5.03h29.29l-1.23 5.03h-11.83l-9.87 39.35h-5.62l9.86-39.35Z"></path><rect width="30.52" height="44.38" x="-15.26" y="-22.19" fill="none" rx="0" ry="0" transform="translate(315.85 469.62)"></rect><path fill="#363636" d="M51.14 94.675q0 8.06 2.55 15.69-2.55 5.09-11.45 5.09-8.9 0-15.26-6.36-6.36-6.36-6.36-16.96 0-24.17 20.56-44.73 20.56-20.57 50.46-31.38 29.89-10.81 60.42-10.81 142.46 0 142.46 102.18 0 26.71-16.11 47.7-16.11 20.99-37.53 30.74-21.41 9.75-41.76 9.75 23.74 0 42.19 10.6 18.44 10.6 30.1 27.56t21.63 37.53q9.96 20.56 19.71 41.34 9.75 20.77 21.2 37.73 11.45 16.96 29.47 27.56 18.02 10.6 41.34 10.6 10.6 0 17.38-4.24 6.36.43 6.36 7.21 0 14.42-29.68 14.42t-53-11.03q-23.32-11.02-37.73-28.83-14.42-17.81-26.08-39.22-11.66-21.41-21.83-42.61-10.18-21.2-21.42-39.01-11.23-17.81-28.62-28.83-17.38-11.02-39.85-11.02-11.03 0-11.03-11.88 0-5.08 3.4-7.63 3.39-2.54 7.63-2.54 39.43 0 62.33-23.11 22.89-23.11 22.89-52.79 0-41.55-27.98-61.48-27.99-19.93-69.75-19.93-41.76 0-74.2 19.72-32.44 19.72-32.44 48.97m49.19-12.29q0-12.72 6.36-19.3 6.36-6.57 15.26-6.57 8.91 0 17.39 5.94v186.98q0 44.52-16.75 70.81t-50.46 26.29q-33.71 0-50.67-15.48-16.96-15.47-16.96-40.91 0-32.65 21.2-32.65 5.09 0 8.91 2.54 3.81 2.55 6.36 7.21-3.39 8.9-3.39 26.29 0 17.38 9.11 26.5 9.12 9.11 23.11 9.11 30.53 0 30.53-54.27z"></path><rect width="424" height="400.68" x="-212" y="-200.34" fill="none" rx="0" ry="0" transform="translate(217 206.06)"></rect></svg></svg>